<svg version="1.0" xmlns="http://www.w3.org/2000/svg"
  width="442" height="78" viewBox="0 0 442 78"
  preserveAspectRatio="xMidYMid meet">
  <g transform="translate(0,78) scale(0.1,-0.1)"
    fill="#000000" stroke="none">
    <path
      d="M20 385 l0 -375 55 0 55 0 2 318 3 317 260 0 c244 0 262 -1 295 -21 57 -33 83 -79 78 -142 -5 -60 -28 -97 -79 -127 -31 -18 -55 -20 -266 -23 l-233 -3 0 -55 0 -54 163 0 162 0 110 -105 110 -104 75 -1 75 0 -108 108 -108 108 41 14 c22 7 58 28 79 47 122 104 122 302 0 406 -73 63 -102 67 -456 67 l-313 0 0 -375z" />
    <path
      d="M1740 386 l0 -376 55 0 55 0 2 318 3 317 219 3 c268 3 303 -4 365 -75 93 -105 94 -270 1 -376 -61 -69 -94 -77 -337 -77 l-203 0 0 -56 0 -56 233 4 c217 3 235 5 282 26 120 55 196 175 203 322 7 136 -33 239 -123 318 -82 72 -100 76 -447 80 l-308 3 0 -375z" />
    <path
      d="M1000 305 l0 -295 310 0 310 0 0 55 0 55 -252 2 -253 3 -3 183 -2 182 255 0 255 0 0 55 0 55 -310 0 -310 0 0 -295z" />
    <path d="M2740 305 l0 -295 55 0 55 0 0 295 0 295 -55 0 -55 0 0 -295z" />
    <path
      d="M3000 305 l0 -295 55 0 55 0 0 234 0 235 28 -8 c94 -27 233 -126 302 -215 50 -66 89 -157 90 -208 l0 -38 60 0 60 0 0 295 0 296 -57 -3 -58 -3 -5 -135 -5 -135 -20 29 c-32 48 -160 143 -248 185 -84 40 -161 61 -222 61 l-35 0 0 -295z" />
    <path
      d="M3790 305 l0 -295 310 0 310 0 0 55 0 55 -250 0 -250 0 0 185 0 185 250 0 250 0 0 55 0 55 -310 0 -310 0 0 -295z" />
    <path d="M1160 305 l0 -55 195 0 195 0 0 55 0 55 -195 0 -195 0 0 -55z" />
    <path d="M3950 305 l0 -55 195 0 195 0 0 55 0 55 -195 0 -195 0 0 -55z" />
  </g>
</svg>